Coordinates
version=1
nRows=20
nColumns=38
inDegrees=no

Units are S.I. units (second, meters, Newtons, ...)
If the header above contains a line with 'inDegrees', this indicates whether rotational values are in degrees (yes) or radians (no).

endheader
time	pelvis_tilt	pelvis_list	pelvis_rotation	pelvis_tx	pelvis_ty	pelvis_tz	hip_flexion_r	hip_adduction_r	hip_rotation_r	knee_angle_r	ankle_angle_r	subtalar_angle_r	mtp_angle_r	hip_flexion_l	hip_adduction_l	hip_rotation_l	knee_angle_l	ankle_angle_l	subtalar_angle_l	mtp_angle_l	lumbar_extension	lumbar_bending	lumbar_rotation	arm_flex_r	arm_add_r	arm_rot_r	elbow_flex_r	pro_sup_r	wrist_flex_r	wrist_dev_r	arm_flex_l	arm_add_l	arm_rot_l	elbow_flex_l	pro_sup_l	wrist_flex_l	wrist_dev_l
4.83	3.07843	1.31894	-1.48037	0.702113	1.92655	0.953396	-0.14035	-0.0385759	-0.172475	0.273163	-0.0417468	0	0	-0.268717	0.0136604	-0.211154	0.134178	0.0112091	0	0	-0.362774	-0.000879312	0.0258598	0.826898	-0.344379	0.532256	0.916001	1.5708	0	0	0.807322	-0.177149	0.216401	1.0039	0.983561	0	0
4.84	3.02201	1.29885	-1.41993	0.701032	1.92841	0.956719	-0.168129	-0.0216078	-0.209037	0.2723	-0.0430578	0	0	-0.29588	-0.00352424	-0.208812	0.124579	0.00632981	0	0	-0.383769	0.0245309	0.0258672	0.828284	-0.347717	0.533486	0.923849	1.5708	0	0	0.800221	-0.171495	0.1993	1.00616	0.981765	0	0
4.85	3.0122	1.29855	-1.41252	0.70187	1.93041	0.9572	-0.174812	-0.018124	-0.205815	0.263828	-0.0458634	0	0	-0.300504	-0.00597664	-0.210774	0.120799	0.00523405	0	0	-0.383473	0.0288682	0.0284941	0.824129	-0.346464	0.52943	0.930203	1.5708	0	0	0.793985	-0.171309	0.191405	1.0093	0.981092	0	0
4.86	2.99365	1.30666	-1.39703	0.702537	1.93268	0.957358	-0.170692	-0.0145002	-0.202754	0.257982	-0.0489792	0	0	-0.295085	-0.00915634	-0.21341	0.118393	0.00402201	0	0	-0.368994	0.0373012	0.0400793	0.811793	-0.351046	0.519287	0.937022	1.5708	0	0	0.802995	-0.0908071	0.0378653	0.929661	1.00359	0	0
4.87	2.99351	1.3017	-1.39662	0.703789	1.93422	0.957842	-0.182134	-0.0121474	-0.204827	0.251112	-0.0490511	0	0	-0.303403	-0.0118598	-0.214768	0.116563	0.00401934	0	0	-0.378698	0.0358896	0.0312615	0.814551	-0.341617	0.517666	0.942074	1.5708	0	0	0.782011	-0.172864	0.179593	1.01577	0.987184	0	0
4.88	2.98315	1.30431	-1.38694	0.704775	1.93611	0.958016	-0.185334	-0.00855221	-0.204924	0.24354	-0.0506191	0	0	-0.303267	-0.015391	-0.216309	0.115094	0.00408647	0	0	-0.374915	0.0392848	0.0317434	0.809755	-0.338755	0.512045	0.947311	1.5708	0	0	0.776235	-0.17455	0.174994	1.01941	0.984753	0	0
4.89	2.96225	1.31387	-1.36759	0.705478	1.93833	0.957904	-0.180395	-0.00404268	-0.203397	0.236407	-0.0531321	0	0	-0.295525	-0.0194778	-0.217914	0.113508	0.00429241	0	0	-0.358414	0.0474739	0.040922	0.79806	-0.342143	0.503295	0.952474	1.5708	0	0	0.784599	-0.0962271	0.0250232	0.944889	1.00599	0	0
4.9	2.95133	1.31625	-1.35625	0.706494	1.94015	0.957949	-0.185093	0.000669398	-0.203387	0.226468	-0.0549708	0	0	-0.295504	-0.0233841	-0.218336	0.111872	0.00525056	0	0	-0.35464	0.0505715	0.0400458	0.794605	-0.339293	0.500931	0.955814	1.5708	0	0	0.779795	-0.0989766	0.023212	0.948848	1.01231	0	0
4.91	2.94007	1.31819	-1.34412	0.707539	1.94184	0.957912	-0.191242	0.00631818	-0.202531	0.214342	-0.057437	0	0	-0.295782	-0.0275464	-0.218315	0.110158	0.00656866	0	0	-0.351553	0.0535994	0.038969	0.791787	-0.336467	0.49886	0.958607	1.5708	0	0	0.776251	-0.102119	0.0222939	0.95207	1.01734	0	0
4.92	2.92842	1.31943	-1.33165	0.708435	1.9436	0.957865	-0.199252	0.0123344	-0.20054	0.200135	-0.0605216	0	0	-0.297755	-0.0313627	-0.217752	0.106743	0.00739696	0	0	-0.34869	0.0569008	0.0379405	0.789312	-0.333666	0.497219	0.960396	1.5708	0	0	0.772884	-0.105202	0.0232339	0.954187	1.0204	0	0
4.93	2.91763	1.31981	-1.32043	0.709188	1.94548	0.957843	-0.20973	0.0184165	-0.196767	0.183219	-0.0643975	0	0	-0.302015	-0.0344589	-0.217007	0.101265	0.00766485	0	0	-0.346278	0.0601957	0.0370669	0.787007	-0.330994	0.496052	0.961651	1.5708	0	0	0.769388	-0.108087	0.023156	0.956181	1.02322	0	0
4.94	2.91043	1.31965	-1.31304	0.709964	1.94728	0.957777	-0.221844	0.0239073	-0.192399	0.164596	-0.0686322	0	0	-0.307601	-0.0364894	-0.21564	0.0947359	0.0076784	0	0	-0.344796	0.0624248	0.0364897	0.784698	-0.328688	0.494412	0.963645	1.5708	0	0	0.766314	-0.111383	0.0253472	0.958446	1.0239	0	0
4.95	2.90401	1.31918	-1.30647	0.710793	1.94891	0.957686	-0.234641	0.0294247	-0.187745	0.145168	-0.073269	0	0	-0.313497	-0.03843	-0.213795	0.0880331	0.00755502	0	0	-0.344028	0.0641966	0.0357982	0.782461	-0.326318	0.492234	0.966305	1.5708	0	0	0.763633	-0.115098	0.0274886	0.961498	1.02346	0	0
4.96	2.89731	1.31881	-1.30004	0.711635	1.95047	0.957533	-0.247685	0.0349374	-0.182428	0.124926	-0.0782305	0	0	-0.319617	-0.0402349	-0.211858	0.0807113	0.00738022	0	0	-0.343303	0.0657963	0.035522	0.779587	-0.32426	0.489306	0.970273	1.5708	0	0	0.760895	-0.119241	0.0299559	0.965381	1.02242	0	0
4.97	2.89181	1.31853	-1.29524	0.712474	1.95199	0.957328	-0.261185	0.0399718	-0.176171	0.103717	-0.0836579	0	0	-0.325982	-0.041524	-0.210129	0.0729063	0.00722485	0	0	-0.342634	0.0668066	0.0356117	0.775969	-0.322424	0.485377	0.975229	1.5708	0	0	0.757827	-0.123656	0.0326176	0.970249	1.02093	0	0
4.98	2.90064	1.31056	-1.30317	0.713561	1.95312	0.957334	-0.284946	0.0442273	-0.170235	0.0802606	-0.0889049	0	0	-0.341301	-0.0423159	-0.207274	0.0645943	0.0072808	0	0	-0.356559	0.0625913	0.0243428	0.781201	-0.313137	0.487571	0.980041	1.5708	0	0	0.735092	-0.192023	0.130691	1.05377	1.00322	0	0
4.99	2.89552	1.311	-1.2991	0.714302	1.95455	0.957027	-0.297146	0.0479953	-0.162296	0.0601674	-0.0945253	0	0	-0.346815	-0.0432267	-0.205505	0.0569834	0.00693356	0	0	-0.354659	0.0632493	0.0266399	0.774998	-0.313721	0.481306	0.987853	1.5708	0	0	0.737212	-0.212958	0.17393	1.05931	0.987467	0	0
5	2.89179	1.31147	-1.2965	0.715032	1.95596	0.956669	-0.30925	0.0510437	-0.153365	0.0402886	-0.10021	0	0	-0.352274	-0.0437624	-0.204013	0.04952	0.0067797	0	0	-0.353566	0.0635697	0.0271104	0.76999	-0.312926	0.476105	0.995692	1.5708	0	0	0.732597	-0.217301	0.172745	1.06674	0.977165	0	0
5.01	2.87482	1.31951	-1.28241	0.71547	1.95765	0.956081	-0.310388	0.0536574	-0.143076	0.0243565	-0.105949	0	0	-0.348483	-0.0445421	-0.204242	0.0433236	0.00652652	0	0	-0.338948	0.0689037	0.0374822	0.756859	-0.318842	0.465894	1.00472	1.5708	0	0	0.740597	-0.141724	0.0376248	0.998861	0.989656	0	0
5.02	2.88609	1.31206	-1.29318	0.716441	1.95868	0.955984	-0.331329	0.0555323	-0.13504	0.00535439	-0.110451	0	0	-0.362848	-0.0446285	-0.202341	0.0359046	0.0067714	0	0	-0.351973	0.0636356	0.0287957	0.758454	-0.312399	0.464504	1.01329	1.5708	0	0	0.722679	-0.22584	0.170909	1.08343	0.967213	0	0
